<svg xmlns="http://www.w3.org/2000/svg" width="32" height="32" style="--bg-color:url(#a);--bg-top-color:#2E7D32;--bg-bottom-color:#1B5E20;--fg-color:white"><defs><linearGradient id="a" x1="0" x2="100%" y1="0" y2="100%"><stop offset="0%" stop-color="var(--bg-top-color)"/><stop offset="100%" stop-color="var(--bg-bottom-color)"/></linearGradient></defs><rect width="32" height="32" fill="var(--bg-color)" rx="4"/><path d="M16 4a4.495 4.495 0 0 0-4.242 3H10c-1.655 0-3 1.345-3 3v15c0 1.655 1.345 3 3 3h12c1.655 0 3-1.345 3-3V10c0-1.655-1.345-3-3-3h-1.758A4.495 4.495 0 0 0 16 4m0 3a1.5 1.5 0 1 1 0 3 1.5 1.5 0 0 1 0-3m-4.04 7.748A2.63 2.63 0 0 1 14.433 13h2.733a2.96 2.96 0 0 1 2.958 2.958c0 1.06-.567 2.039-1.486 2.569l-1.514.867c-.01.61-.51 1.106-1.125 1.106a1.12 1.12 0 0 1-1.125-1.125v-.633c0-.403.216-.773.567-.975l2.077-1.19a.709.709 0 0 0-.352-1.322h-2.733c-.159 0-.3.098-.351.248l-.019.056c-.206.586-.853.891-1.434.685a1.13 1.13 0 0 1-.685-1.435l.02-.056zM14.5 23.5a1.5 1.5 0 1 1 3 0 1.5 1.5 0 0 1-3 0" style="fill:var(--fg-color);stroke-width:.857143"/></svg>